/* XPM */
static char *result[] = {
/* columns rows colors chars-per-pixel */
"32 32 8 1 ",
"  c #40221F",
". c #552E23",
"X c #603E21",
"o c #3F4A42",
"O c #4F6454",
"+ c #885620",
"@ c #738525",
"# c #4E8A8C",
/* pixels */
"@@@@@@@@@@@@@@@@@@@@@@@@@@@@@@@@",
"@@@@@@@@@@@@@@@@@@@@@@@@@@@@@@@@",
"@@@@@@@@@@@@@@@@@@@@@@@@@@@@@@@@",
"@@@@@@@@@@@@@@@@@@@@@@@@@@@@@@@@",
"@@@@@@@@@@@@@@@@@@@@@@@@@@@@@@@@",
"@@@@@@@@@              @@@@@@@@@",
"@@@@@@   ..............   @@@@@@",
"@@@@@@ O..++++++++++++..O @@@@@@",
"@@@@@ O.++++++++++++++++.O @@@@@",
"@@@@@ O++++++++++++++++++O @@@@@",
"@@@@@ O++++++++++++++++++O @@@@@",
"@@@@@ O..................O @@@@@",
"@@@@@ O++++++++++++++++++O @@@@@",
"@@@@@ OXXXXXXXXXXXXXXXXXXO @@@@@",
"@@@@@ O..................O @@@@@",
"@@@@@ OXXXXXXXXXXXXXXXXXXO @@@@@",
"@@@@@ O..................O @@@@@",
"@@@@@ OOOOOOOOOOOOOOOOOOOO @@@@@",
"@@@@@                      @@@@@",
"@@@@@ ........ ## ........ @@@@@",
"@@@@@ X.XXXXXXOooOXXXXXX.X @@@@@",
"@@@@@ XXXXXXXXXOOXXXXXXXXX @@@@@",
"@@@@@ X.XXXXXXXXXXXXXXXX.X @@@@@",
"@@@@@ .................... @@@@@",
"@@@@@ oooooooooooooooooooo @@@@@",
"@@@@@@                    @@@@@@",
"@@@@@@@@@@@@@@@@@@@@@@@@@@@@@@@@",
"@@@@@@@@@@@@@@@@@@@@@@@@@@@@@@@@",
"@@@@@@@@@@@@@@@@@@@@@@@@@@@@@@@@",
"@@@@@@@@@@@@@@@@@@@@@@@@@@@@@@@@",
"@@@@@@@@@@@@@@@@@@@@@@@@@@@@@@@@",
"@@@@@@@@@@@@@@@@@@@@@@@@@@@@@@@@"
};
