/* XPM */
static char *result[] = {
/* columns rows colors chars-per-pixel */
"32 32 147 2 ",
"   c #672E2F",
".  c #6B2E2C",
"X  c #742D24",
"o  c #702D28",
"O  c #763521",
"+  c #77352D",
"@  c #632F34",
"#  c #673337",
"$  c #65353C",
"%  c #714627",
"&  c #724B27",
"*  c #6B5A2C",
"=  c #715827",
"-  c #67662F",
";  c #6A652D",
":  c #70672E",
">  c #6F7B29",
",  c #777B22",
"<  c #7D7922",
"1  c #707828",
"2  c #666630",
"3  c #686A31",
"4  c #6F6B3C",
"5  c #717E3F",
"6  c #664144",
"7  c #6A4447",
"8  c #6C444C",
"9  c #6E4A4E",
"0  c #7F4C47",
"q  c #71464D",
"w  c #774C4D",
"e  c #7A4F4D",
"r  c #764C52",
"t  c #68575C",
"y  c #66585E",
"u  c #7D5151",
"i  c #775B5E",
"p  c #6E744C",
"a  c #767B57",
"s  c #787C5A",
"d  c #685F64",
"f  c #7B6063",
"g  c #716569",
"h  c #7A6F73",
"j  c #7D7276",
"k  c #973A14",
"l  c #9B3D15",
"z  c #953C19",
"x  c #A03F15",
"c  c #8B3724",
"v  c #833E2D",
"b  c #9B4015",
"n  c #924D18",
"m  c #845C1A",
"M  c #885B1B",
"N  c #955019",
"B  c #A34316",
"V  c #AB4817",
"C  c #A34418",
"Z  c #A94719",
"A  c #85691E",
"S  c #8A6B1E",
"D  c #99482F",
"F  c #974D33",
"G  c #9C4E33",
"H  c #886936",
"J  c #885A4D",
"K  c #92554D",
"L  c #805552",
"P  c #8B5651",
"I  c #8A5D54",
"U  c #825859",
"Y  c #8B5E5A",
"T  c #935E54",
"R  c #837547",
"E  c #877849",
"W  c #8D7B48",
"Q  c #927E49",
"!  c #87635B",
"~  c #8F615A",
"^  c #92635D",
"/  c #9B6B5C",
"(  c #827E59",
")  c #A16F5F",
"_  c #A37253",
"`  c #AA765F",
"'  c #AD795F",
"]  c #836461",
"[  c #956760",
"{  c #9C6D60",
"}  c #8A7166",
"|  c #8F726D",
" . c #9C7365",
".. c #91736E",
"X. c #9C7B6D",
"o. c #8F7677",
"O. c #8D7F76",
"+. c #867B7E",
"@. c #957C72",
"#. c #917778",
"$. c #967B7B",
"%. c #A57662",
"&. c #A97761",
"*. c #A57963",
"=. c #AC7961",
"-. c #A37D6D",
";. c #AB7F6A",
":. c #B47E60",
">. c #738525",
",. c #76862D",
"<. c #8D8142",
"1. c #9C8449",
"2. c #978274",
"3. c #9B8576",
"4. c #A4826D",
"5. c #AC846E",
"6. c #AA8770",
"7. c #A18B7C",
"8. c #AD8D7A",
"9. c #B18972",
"0. c #A6937F",
"q. c #AD927D",
"w. c #BB997E",
"e. c #AC9785",
"r. c #AD9985",
"t. c #A79A89",
"y. c #AA9C8A",
"u. c #B29982",
"i. c #BA9E87",
"p. c #B29E89",
"a. c #B4A38D",
"s. c #B9A58D",
"d. c #B2A492",
"f. c #BBA991",
"g. c #C1A78B",
"h. c #C2AA8E",
"j. c #C4AE92",
"k. c #C3B095",
"l. c #CCB394",
"z. c #C7B89E",
"x. c #CBBA9E",
"c. c #D3BA9A",
"v. c #CDBCA0",
"b. c #D4C4A6",
"n. c #D7C7A8",
"m. c #DBCCAB",
"M. c #DFD0AF",
/* pixels */
">.>.>.>.>.>.>.>.>.>.>.>.>.>.>.<.>.>.>.>.>.>.>.>.>.>.>.>.>.>.>.>.",
">.>.>.>.>.>.>.>.>.>.>.>.>.>.H ' 3 >.>.>.>.>.>.>.>.>.>.>.>.>.>.>.",
">.>.>.>.>.>.>.>.>.>.>.>.>.m F ` @ * >.>.>.>.>.>.>.>.>.>.>.>.>.>.",
">.>.>.>.>.>.>.>.>.>.>.>.n k D :..   & >.>.>.>.>.>.>.>.>.>.>.>.>.",
">.>.>.>.>.>.>.>.>.>.>.n b b F ' # . . % >.>.>.>.>.>.>.>.>.>.>.>.",
">.>.>.>.>.>.>.>.>.>.n l B k G ` .   X . % >.>.>.>.>.>.>.>.>.>.>.",
">.>.>.>.>.>.>.>.>.M l B b l F ` @ . . X   = >.>.>.>.>.>.>.>.>.>.",
">.>.>.>.>.>.>.>.n l l l b k G ' . . X . X . % >.>.>.>.>.>.>.>.>.",
">.>.>.>.>.>., N b l b l b l F ` @ o   X   X . % > >.>.>.>.>.>.>.",
">.>.>.>.>.< B B V k B l B l G ' .   X . X o X o O 1 >.>.>.>.>.>.",
">.>.>.>.>.S l B l l l B k l F =.@ . . X . X o X o ; >.>.>.>.>.>.",
">.>.>.>.>.S B l l l l k B b G =..   X . X   X . X ; >.>.>.>.>.>.",
">.>.>.>.>.S B b b l l l l x F *.@ X . X . X . X o ; >.>.>.>.>.>.",
">.>.>.>.>.A B B V l B l Z B G ^ # . X . X . X X O - >.>.>.>.>.>.",
">.>.>.>.>.S b B l l l B k K | @...u . X . X . X o - >.>.>.>.>.>.",
">.>.>.>.>.S Z k l l l l T e.e.) u.s.! . X . X . X ; >.>.>.>.>.>.",
">.>.>.>.>.S B b l l l I s.n.6._ X.n.k.! . X . X X - >.>.>.>.>.>.",
">.>.>.>.>.A b B Z z P p.v.z.k.X.s.b.x.d.u . X X X 2 >.>.>.>.>.>.",
">.>.>.>.>.S l C D 7 ! -.5.6.%.;.*.9.5.4.U 6 +   . ; >.>.>.>.>.>.",
">.>.>.>.>.S Z 0 r.x.8.l.m.n.i.&.p.m.m.c.8.x.r.9 X - >.>.>.>.>.>.",
">.>.>.>.>.: $ ] s.j.h.;.g.j.9. .q.l.h.5.h.j.s.! 8 4 >.>.>.>.>.>.",
">.>.>.>.>.R ^ 8 Y Y Y Y ~ ~ ^ ~ ^ Y ~ ~ Y Y Y 8 / R >.>.>.>.>.>.",
">.>.>.>.>.W :.I 7.r.s.f.f.f.f.f.s.f.f.s.a.s.7.Y :.E >.>.>.>.>.>.",
">.>.>.>.>.1.:.@.x.n.m.M.M.m.h.q.j.m.m.m.m.M.x.3.' E >.>.>.>.>.>.",
">.>.>.>.>.1.' 0.n.n.b.n.m.w.Z Z c e.m.M.m.M.n.e.` E >.>.>.>.>.>.",
">.>.>.>.>.Q ) 3.f.x.x.f.k.4.v v + } k.v.v.k.f.@.) E >.>.>.>.>.>.",
">.>.>.>.>.Q ^ 9 { &.&.&.&.I q 7 r J &.&.&.&.[ r ^ R >.>.>.>.>.>.",
">.>.>.>.>.( $.o.$.$.$.+.$.i / ^ U f $.#.$.$.$.o.$.( >.>.>.>.>.>.",
">.>.>.>.>.a h +.j h h +.j y e L w t h +.h h h +.j s >.>.>.>.>.>.",
">.>.>.>.>.p y g y d y g y 2.d.d.a.O.y g d d d g y p >.>.>.>.>.>.",
">.>.>.>.>.>.>.>.>.>.>.>.,.v.f.v.v.y.5 >.>.>.>.>.>.>.>.>.>.>.>.>.",
">.>.>.>.>.>.>.>.>.>.>.>.,.d.d.t.t.3.5 >.>.>.>.>.>.>.>.>.>.>.>.>."
};
