/* XPM */
static char *result[] = {
/* columns rows colors chars-per-pixel */
"32 32 26 1 ",
"  c #2E1A23",
". c #172D3B",
"X c #2B2B26",
"o c #3F3F37",
"O c #402018",
"+ c #452933",
"@ c #543538",
"# c #613835",
"$ c #63403D",
"% c #244B57",
"& c #245257",
"* c #58594C",
"= c #8A583D",
"- c #815646",
"; c #A65A46",
": c #B76A50",
"> c #C7795A",
", c #738525",
"< c #418079",
"1 c #BD8259",
"2 c #808274",
"3 c #E39C76",
"4 c #EBC678",
"5 c #6EC09B",
"6 c #FFC79C",
"7 c #FFD1A4",
/* pixels */
",,,,,,,,,#,,,###===#===,,,,,,,,,",
",,,,,,,,,#++###====#===,,,,,,,,,",
",,,,,,,,,#++####===#===,,,,,,,,,",
",,,,,,,,,+++###========,,,,,,,,,",
",,,,,,,,,++##=======#=,,,,,,,,,,",
",,,,,,,,,##====##=###,,,,,,,,,,,",
",,,,,,,,,+##==333333O,,,,,,,,,,,",
",,,,,,,,,##=#3OOOO3OO,,,,,,,,,,,",
",,,,,,,,,++##3>>>;;>,,,*2,,,,,,,",
",,,,,,,,,63#>3OO3;;O,,**2,,,,,,,",
",,,,,,,,,66+>3777;;7oX**2,,,,,,,",
",,,,,,,,,,+>>7777777oX***,,,,,,,",
",,,,,,,,,<5337773377oXo*,,,,,,,,",
",,,,,,,,5<5<3377777+ oX,,,,,,,,,",
",,,,,,,5<<5<<<&;;;.-  o,,,,,,,,,",
",,,,,,,555<5<<<&&.$--<<,,,,,,,,,",
",,,,,,55555<<<555$11-<<<,,,,,,,,",
",,,,,,55555<<555$1115<<<,,,,,,,,",
",,,,,,55555<<55$11155<<<,,,,,,,,",
",,,,,,5555,<<$$111555<<<,,,,,,,,",
",,,,,,<<<5++--1115555%%%,,,,,,,,",
",,,,,,5557++ ---5555<<<<,,,,,,,,",
",,,,,,3777+  <<<<<<<3:::,,,,,,,,",
",,,,,,7777   @  144 3:33,,,,,,,,",
",,,,,,7773  1-1---@@33:3,,,,,,,,",
",,,,,,,77,,,11111-@@,33,,,,,,,,,",
",,,,,,,,,,,-11111@--,,,,,,,,,,,,",
",,,,,,,,,,,-1111-@--,,,,,,,,,,,,",
",,,,,,,,,,,11111@---,,,,,,,,,,,,",
",,,,,,,,,,,-11-,@--,,,,,,,,,,,,,",
",,,,,,,,,,,  ,,,,  ,,,,,,,,,,,,,",
",,,,,,,,,,,@@,,,,++,,,,,,,,,,,,,"
};
