/* XPM */
static char *result[] = {
/* columns rows colors chars-per-pixel */
"32 32 79 1 ",
"  c #3B3427",
". c #323D2D",
"X c #3E3C2D",
"o c #4D2C21",
"O c #532E23",
"+ c #4F3423",
"@ c #4E3D21",
"# c #433F2D",
"$ c #573223",
"% c #593422",
"& c #5D3B21",
"* c #603E21",
"= c #2F4C2F",
"- c #3C462C",
"; c #304D2E",
": c #3A4B2C",
"> c #35502E",
", c #3C532E",
"< c #2D4531",
"1 c #2B4B33",
"2 c #314732",
"3 c #364C30",
"4 c #2C5332",
"5 c #275937",
"6 c #2A5E36",
"7 c #255739",
"8 c #245C39",
"9 c #3C5230",
"0 c #3D5E32",
"q c #2A6436",
"w c #24633A",
"e c #246C3A",
"r c #2C6F38",
"t c #376D35",
"y c #24753B",
"u c #257B3B",
"i c #397430",
"p c #347835",
"a c #3C7B30",
"s c #4C4327",
"d c #4A4A24",
"f c #40442A",
"g c #544126",
"h c #45572F",
"j c #445A2D",
"k c #4B5D2C",
"l c #565021",
"z c #435730",
"x c #4C622C",
"c c #5D6323",
"v c #52642B",
"b c #576B2A",
"n c #5A6D2C",
"m c #5D712B",
"M c #626C24",
"N c #667224",
"B c #697624",
"V c #667827",
"C c #6C7D26",
"Z c #637529",
"A c #627A2A",
"S c #697928",
"D c #26843C",
"F c #2D8339",
"G c #258C3D",
"H c #2B8E3B",
"J c #358B37",
"K c #3C8C33",
"L c #2F903A",
"P c #379337",
"I c #3B9635",
"U c #3F9833",
"Y c #339239",
"T c #479D2E",
"R c #489E2D",
"E c #439730",
"W c #429A31",
"Q c #6E8027",
"! c #738525",
/* pixels */
"!!!!!!!!!!!!!SV6666Z!!!!!!!!!!!!",
"!!!!!!!!!!!!bDKWWWWD0m!!!!!!!!!!",
"!!!!!!!!!!!mFHWWTTTTHpZ!!!!!!!!!",
"!!!!!!!!!QnEWHHYWTLHHWEn!!!!!!!!",
"!!!!!!!!SrKTTTIGGGGITTTi!!!!!!!!",
"!!!!!!!CaYIWTTWTTWTTTTTYt!!!!!!!",
"!!!!!!!9RWLWTTTTTTTTTTTHuZ!!!!!!",
"!!!!!!mTTTUHTTTTTTTTTPDWLq!!!!!!",
"!!!!!vJTTTTWIYWWTTWYYGWTEDv!!!!!",
"!!!!!zGWTTTTTWYGGGYYWTTTIGDZ!!!!",
"!!!!!zUWTTTTTTTWWWTTWRTIHY8Z!!!!",
"!!!!CtRHWTTTTTTTWRTTTTTHTp81!!!!",
"!!!!VDTWHWWTTTTTRRRRWWHIED81!!!!",
"!!!!ZDURWGLPPTTTRWPPYGURYu81!!!!",
"!!!!V7YWTWULHGGGGGGGUWWYGy81!!!!",
"!!!!V7yYTTTTWUWUWUUPGGGGeu5n!!!!",
"!!!!b=weDGUUGGPTWWWGGGGuGq9Q!!!!",
"!!!!<=wDueGGGGGHHYHGGGGGw449!!!!",
"!!!!k1>uGG5uDGGGGGuuue88845<!!!!",
"!!!!!h21wDD8wwwwewwu888488;;!!!!",
"!!!!!!Z=8888888uGDy884;;;29Q!!!!",
"!!!!!!m==55=;58w88444;;;=m!!!!!!",
"!!!!!!C:====;58888854;;;3C!!!!!!",
"!!!!!!!!Zhjj:==;841;.hhh!!!!!!!!",
"!!!!!!!!!!!!! ==;;;.N!!!!!!!!!!!",
"!!!!!!!!!,!!CosX# #%M!!!!S!!!!!!",
"!!!!!!!xV,!Co%*&%O**&c!!!x!!!!!!",
"!!!!!!!kmbBo%%&*%&***ocx!Z!!!!!!",
"!!!!!!!x!Qo+:$*gg&O*:OO.!!!!!!!!",
"!!!!!!!!!!M>-OO-f%Og:kMm!!!!!!!!",
"!!!!!!!!!!!kso:d:@Oo:A!!!!!!!!!!",
"!!!!!!!!!!!!vBC!V!@lV!!!!!!!!!!!"
};
